#N canvas 994 153 752 690 10;
#X obj 100 137 adc~, f 5;
#X obj 108 192 delwrite~ tape1 5000;
#X obj 110 300 sig~;
#X obj 198 249 vd~ tape1;
#X obj 110 338 delread4~ tape1;
#X obj 104 442 dac~;
#X obj 103 391 *~;
#X obj 246 360 t b b b;
#X msg 244 404 1;
#X msg 285 405 100;
#X msg 318 448 0;
#X obj 243 446 pack 0 0;
#X obj 243 490 line~;
#X obj 246 519 cos~;
#X obj 241 550 *~ -1;
#X obj 242 585 +~ 1;
#X obj 241 614 /~ 2;
#X obj 248 308 bng 15 250 50 0 empty empty empty 17 7 0 10 -262144
-1 -1;
#X msg 113 249 300;
#X connect 0 0 1 0;
#X connect 0 1 1 0;
#X connect 2 0 4 0;
#X connect 4 0 6 0;
#X connect 6 0 5 0;
#X connect 6 0 5 1;
#X connect 7 0 8 0;
#X connect 7 1 9 0;
#X connect 7 2 10 0;
#X connect 8 0 11 0;
#X connect 9 0 11 1;
#X connect 11 0 12 0;
#X connect 12 0 13 0;
#X connect 13 0 14 0;
#X connect 14 0 15 0;
#X connect 15 0 16 0;
#X connect 16 0 6 1;
#X connect 17 0 7 0;
#X connect 18 0 2 0;
