#N canvas 98 70 1427 733 10;
#X obj 30 700 dac~;
#X obj 29 40 adc~;
#N canvas 0 0 612 483 equal_power_crossfade 0;
#X obj 33 48 inlet~;
#X obj 244 58 inlet;
#X obj 33 332 outlet~;
#X obj 319 54 loadbang;
#X msg 319 74 0.5;
#X obj 49 194 expr cos($f1 * 3.14159 / 2);
#X obj 244 194 expr sin($f1 * 3.14159 / 2);
#X obj 244 134 clip 0 1;
#N canvas 0 0 450 300 pan_core 0;
#X obj 21 106 inlet~;
#X obj 226 126 inlet;
#X obj 80 453 *~;
#X obj 144 497 outlet~;
#X obj 210 452 *~;
#X obj 226 428 line~;
#X obj 96 428 line~;
#X obj 96 127 inlet;
#X obj 179 104 inlet~;
#X text 244 544 comment;
#X obj 96 389 pack f 5;
#X obj 226 389 pack f 5;
#X text 223 540 Hans-Christoph Steiner \, 2004;
#X text 223 526 Adapted from [pan_core~];
#X connect 0 0 2 0;
#X connect 1 0 11 0;
#X connect 2 0 3 0;
#X connect 4 0 3 0;
#X connect 5 0 4 1;
#X connect 6 0 2 1;
#X connect 7 0 10 0;
#X connect 8 0 4 0;
#X connect 10 0 6 0;
#X connect 11 0 5 0;
#X restore 39 266 pd pan_core;
#X text 256 437 Adapted from [equal_power_pan~] \, Hans-Christoph Steiner
\, 2004;
#X text 411 449 comment;
#X obj 128 46 inlet~;
#X connect 0 0 8 0;
#X connect 1 0 7 0;
#X connect 3 0 4 0;
#X connect 4 0 7 0;
#X connect 5 0 8 1;
#X connect 6 0 8 3;
#X connect 7 0 5 0;
#X connect 7 0 6 0;
#X connect 8 0 2 0;
#X connect 11 0 8 2;
#X restore 29 651 pd equal_power_crossfade;
#X obj 173 603 hsl 128 25 0 1 0 0 empty crossfade Dry_---_Wet_(crossfade)
-2 -8 0 10 -4034 -1 -1 6350 1;
#X obj 86 517 *~ 10;
#N canvas 0 0 450 155 init 0;
#X obj 214 41 loadbang;
#X msg 217 77 \; del-sin 1 \; fb-sin 1 \; gain-flat 1 \; lp-freq 220
\; slope -0.04 \; crossfade 0.5 \;;
#X connect 0 0 1 0;
#X restore 600 87 pd init;
#X obj 31 2 pddp/dsp;
#X obj 689 686 dac~;
#N canvas 0 0 612 483 equal_power_crossfade 0;
#X obj 33 48 inlet~;
#X obj 244 58 inlet;
#X obj 33 332 outlet~;
#X obj 319 54 loadbang;
#X msg 319 74 0.5;
#X obj 49 194 expr cos($f1 * 3.14159 / 2);
#X obj 244 194 expr sin($f1 * 3.14159 / 2);
#X obj 244 134 clip 0 1;
#N canvas 0 0 450 300 pan_core 0;
#X obj 21 106 inlet~;
#X obj 226 126 inlet;
#X obj 80 453 *~;
#X obj 144 497 outlet~;
#X obj 210 452 *~;
#X obj 226 428 line~;
#X obj 96 428 line~;
#X obj 96 127 inlet;
#X obj 179 104 inlet~;
#X text 244 544 comment;
#X obj 96 389 pack f 5;
#X obj 226 389 pack f 5;
#X text 223 540 Hans-Christoph Steiner \, 2004;
#X text 223 526 Adapted from [pan_core~];
#X connect 0 0 2 0;
#X connect 1 0 11 0;
#X connect 2 0 3 0;
#X connect 4 0 3 0;
#X connect 5 0 4 1;
#X connect 6 0 2 1;
#X connect 7 0 10 0;
#X connect 8 0 4 0;
#X connect 10 0 6 0;
#X connect 11 0 5 0;
#X restore 39 266 pd pan_core;
#X text 256 437 Adapted from [equal_power_pan~] \, Hans-Christoph Steiner
\, 2004;
#X text 411 449 comment;
#X obj 128 46 inlet~;
#X connect 0 0 8 0;
#X connect 1 0 7 0;
#X connect 3 0 4 0;
#X connect 4 0 7 0;
#X connect 5 0 8 1;
#X connect 6 0 8 3;
#X connect 7 0 5 0;
#X connect 7 0 6 0;
#X connect 8 0 2 0;
#X connect 11 0 8 2;
#X restore 688 644 pd equal_power_crossfade;
#X obj 832 597 hsl 128 25 0 1 0 0 empty crossfade Dry_---_Wet_(crossfade)
-2 -8 0 10 -4034 -1 -1 5400 1;
#X obj 742 515 *~ 10;
#N canvas 0 0 455 199 init 0;
#X obj 214 41 loadbang;
#X msg 217 77 \; del-sin 1 \; fb-sin 1 \; gain-flat 1 \; lp-freq 220
\; slope -0.04 \; crossfade 0.5 \;;
#X connect 0 0 1 0;
#X restore 1256 85 pd init;
#X obj 87 130 Guitar_specdelayL~;
#X obj 743 128 Guitar_specdelayR~;
#X obj 30 81 *~;
#X floatatom 96 78 5 0 0 0 - - -;
#X obj 99 46 hsl 128 15 0 2 0 0 empty empty Input_Gain -2 -8 0 10 -262144
-1 -1 0 1;
#X obj 328 498 hsl 128 15 0 2 0 0 empty empty Output_Gain -2 -8 0 10
-262144 -1 -1 0 1;
#X msg 325 530 \$1 10;
#X obj 325 563 line~;
#X floatatom 426 552 5 0 0 0 - - -;
#X obj 735 543 *~;
#X obj 1016 496 hsl 128 15 0 2 0 0 empty empty Output_Gain -2 -8 0
10 -262144 -1 -1 11900 1;
#X msg 1013 528 \$1 10;
#X obj 1013 561 line~;
#X floatatom 1114 550 5 0 0 0 - - -;
#X obj 741 26 adc~;
#X obj 742 67 *~;
#X floatatom 808 64 5 0 0 0 - - -;
#X obj 811 32 hsl 128 15 0 2 0 0 empty empty Input_Gain -2 -8 0 10
-262144 -1 -1 12100 1;
#X obj 694 543 *~;
#X obj 66 582 *~;
#X obj 29 581 *~;
#X connect 1 0 14 0;
#X connect 2 0 0 0;
#X connect 3 0 2 2;
#X connect 4 0 31 0;
#X connect 8 0 7 1;
#X connect 9 0 8 2;
#X connect 10 0 21 0;
#X connect 12 0 4 0;
#X connect 13 0 10 0;
#X connect 14 0 12 0;
#X connect 14 0 32 0;
#X connect 15 0 14 1;
#X connect 16 0 15 0;
#X connect 17 0 18 0;
#X connect 17 0 20 0;
#X connect 18 0 19 0;
#X connect 19 0 31 1;
#X connect 19 0 32 1;
#X connect 21 0 8 1;
#X connect 22 0 23 0;
#X connect 22 0 25 0;
#X connect 23 0 24 0;
#X connect 24 0 21 1;
#X connect 24 0 30 1;
#X connect 26 1 27 0;
#X connect 27 0 13 0;
#X connect 27 0 30 0;
#X connect 28 0 27 1;
#X connect 29 0 28 0;
#X connect 30 0 8 0;
#X connect 31 0 2 1;
#X connect 32 0 2 0;
